User Type,Username,Date,Text
,sherooji,2011-10-21T06:17Z,"a/?
v/?
plz"
,g3woonluuk,2011-10-21T13:48Z,"5.1 my ass!, it is the same quality as any other hangover part 2 uploads."
[T],Filmofiel,2011-10-21T22:21Z,"Hey g3woon luuk, deze is wel degelijk 5.1...sukkel:

Format                           : AVI
Format/Info                      : Audio Video Interleave
File size                        : 1.46 GiB
Duration                         : 1h 37mn
Overall bit rate                 : 2 137 Kbps

Video
ID                               : 0
Format                           : MPEG-4 Visual
Format profile                   : Advanced Simple@L5
Format settings, BVOP            : 2
Format settings, QPel            : No
Format settings, GMC             : No warppoints
Format settings, Matrix          : Default (H.263)
Codec ID                         : XVID
Codec ID/Hint                    : XviD
Duration                         : 1h 37mn
Bit rate                         : 1 746 Kbps
Width                            : 720 pixels
Height                           : 304 pixels
Display aspect ratio             : 2.35:1
Frame rate                       : 19.181 fps
Color space                      : YUV
Chroma subsampling               : 4:2:0
Bit depth                        : 8 bits
Scan type                        : Progressive
Compression mode                 : Lossy
Bits/(Pixel*Frame)               : 0.416
Stream size                      : 1.19 GiB (82%)
Writing library                  : XviD 1.2.1 (UTC 2008-12-04)

Audio
ID                               : 1
Format                           : AC-3
Format/Info                      : Audio Coding 3
Mode extension                   : CM (complete main)
Codec ID                         : 2000
Duration                         : 1h 37mn
Bit rate mode                    : Constant
Bit rate                         : 384 Kbps
Channel(s)                       : 6 channels
Channel positions                : Front: L C R, Side: L R, LFE
Sampling rate                    : 48.0 KHz
Bit depth                        : 16 bits
Compression mode                 : Lossy
Stream size                      : 268 MiB (18%)
Alignment                        : Aligned on interleaves
Interleave, duration             : 64 ms (1.23 video frame)
Interleave, preload duration     : 192 ms
Title                            : The Hangover Part II (2011) DVDSCR XviD.avi_track_1_"
